<svg width="180" height="32" viewBox="0 0 123 16" fill="none" xmlns="http://www.w3.org/2000/svg">
<g clip-path="url(#clip0_596_9490)">
<path d="M7.74752 10.7283C8.09656 11.53 8.40198 10.6192 8.40198 10.6192L8.88301 9.32883L10.8464 4.05604L10.109 1.51672C10.0665 1.40765 9.85489 1.6258 9.83853 1.64434C9.72296 1.81804 9.6333 2.00764 9.57238 2.20718C9.38913 2.67512 9.24515 3.15506 9.08262 3.62519C8.91464 4.12767 8.74848 4.63015 8.58414 5.13263C8.25327 6.13832 7.92313 7.14402 7.59372 8.14971L7.56754 8.22933L7.33521 8.9307L7.62862 10.2647C7.62862 10.2647 7.74206 10.7217 7.74752 10.7283Z" fill="url(#paint0_linear_596_9490)"/>
<path d="M5.64897 14.2034C5.43082 14.8469 4.79708 15.4469 4.12189 15.4512L0.675049 15.4741L5.01742 2.30524C5.19412 1.76858 5.73078 1.17193 6.33507 1.17193H9.65211C9.7494 1.17046 9.84468 1.19971 9.92439 1.25552C10.0041 1.31134 10.0642 1.39087 10.0961 1.4828L10.1135 1.52534C10.1115 1.52227 10.1089 1.51966 10.1059 1.5177C10.047 1.48389 9.91608 1.62024 9.8779 1.66496L9.86699 1.67696C9.75165 1.85078 9.66201 2.04035 9.60085 2.23979C9.41869 2.70774 9.27361 3.18658 9.11109 3.6578C8.94456 4.15955 8.7784 4.66167 8.61261 5.16416C8.28537 6.16985 7.95814 7.17663 7.62327 8.18123L7.5971 8.26086L7.36476 8.96223L5.64897 14.2034Z" fill="url(#paint1_linear_596_9490)"/>
<path d="M16.9141 14.961C16.5261 15.2798 16.0428 15.4599 15.5408 15.4726L12.9175 15.4617C13.0135 14.8749 13.0473 12.3519 13.2349 10.3067L14.0901 7.95283C14.0988 7.92884 14.1097 7.90266 14.1195 7.87648C14.4631 6.91442 14.8023 5.94799 15.1437 4.98266C15.3161 4.50054 15.4873 4.01842 15.6619 3.53848C15.8244 3.08035 15.9782 2.62332 16.168 2.17392C16.222 2.03312 16.2847 1.89578 16.3556 1.7627C16.3665 1.74416 16.3785 1.7267 16.3905 1.70816C16.3979 1.69584 16.4063 1.68417 16.4156 1.67326C16.423 1.66199 16.4314 1.6514 16.4407 1.64162C16.4581 1.6209 16.6828 1.40383 16.7319 1.51291C16.7319 1.55545 16.7417 1.59799 16.7472 1.64053C16.7472 1.65144 16.7472 1.66235 16.7472 1.67653C16.7472 1.69071 16.7472 1.70052 16.7526 1.71143C16.7581 1.72234 16.7526 1.7387 16.7526 1.75179C16.7536 1.76523 16.7536 1.77872 16.7526 1.79215C16.7526 1.80851 16.7526 1.8216 16.7526 1.83469C16.7526 1.84778 16.7526 1.86632 16.7526 1.88159C16.7526 1.89686 16.7526 1.91323 16.7581 1.9285C16.7635 1.94377 16.7581 1.96231 16.7581 1.98085C16.7598 1.9979 16.7598 2.01507 16.7581 2.03212C16.7581 2.04957 16.7581 2.0703 16.7635 2.08775C16.7625 2.10628 16.7625 2.12485 16.7635 2.14338C16.7635 2.1641 16.7635 2.18374 16.7635 2.20446C16.7635 2.22519 16.7635 2.247 16.7635 2.26664C16.7635 2.28627 16.7635 2.31136 16.7635 2.33208C16.7635 2.35281 16.7635 2.3768 16.7635 2.4008V2.47061C16.7624 2.48112 16.7624 2.49173 16.7635 2.50224L17.2129 13.0566C17.262 13.6696 17.4038 14.5444 16.9141 14.961Z" fill="url(#paint2_linear_596_9490)"/>
<path d="M16.7333 1.50961C16.6864 1.40054 16.4661 1.61324 16.4475 1.63287C16.445 1.63588 16.4428 1.63918 16.441 1.64269C16.4317 1.65247 16.4233 1.66306 16.4159 1.67432C16.4066 1.68523 16.3982 1.69691 16.3908 1.70923C16.3788 1.72777 16.3668 1.74522 16.3559 1.76377C16.2849 1.89685 16.2223 2.03418 16.1683 2.17499C15.9785 2.62438 15.8247 3.08142 15.6622 3.53954C15.4876 4.01948 15.3164 4.5016 15.144 4.98373C14.8026 5.94906 14.4634 6.91548 14.1198 7.87754C14.11 7.90372 14.0991 7.9299 14.0904 7.9539L13.2352 10.3078L13.0705 10.7615L12.5251 12.269C12.3182 12.8514 11.8909 13.3293 11.3351 13.5997C10.6981 13.8986 9.98687 13.8113 9.37168 13.4798C9.28663 13.434 9.20432 13.3834 9.12516 13.3281C9.11207 13.3281 9.0968 13.3281 9.07826 13.3129C9.02916 13.272 8.98288 13.2279 8.93973 13.1809C8.69047 12.9675 8.49155 12.7015 8.35726 12.4021C8.33762 12.3704 8.32453 12.3508 8.32235 12.3443C8.29945 12.3159 7.78896 10.8423 7.72461 10.659C7.73661 10.6863 7.74643 10.7212 7.75951 10.7441C7.7726 10.767 7.77806 10.7812 7.78787 10.7986C7.8001 10.8215 7.81358 10.8437 7.82823 10.8652C7.8435 10.8848 7.85659 10.9033 7.87077 10.9197C7.87712 10.9275 7.88405 10.9348 7.8915 10.9415C7.91063 10.964 7.93413 10.9823 7.96057 10.9955C7.98701 11.0086 8.01583 11.0162 8.0453 11.0179C8.05761 11.0194 8.07007 11.0194 8.08238 11.0179C8.09342 11.0159 8.1041 11.0122 8.11402 11.007C8.2809 10.9383 8.39653 10.6427 8.39653 10.6427L8.8252 9.49189L8.85138 9.42535L8.8961 9.30428L10.8508 4.06857L11.5369 2.22952C11.634 1.96111 11.804 1.72504 12.0277 1.54779C12.3509 1.30109 12.7479 1.17079 13.1545 1.17802H16.2174C16.3537 1.17802 16.4813 1.17038 16.573 1.24565C16.6244 1.2863 16.6642 1.3397 16.6886 1.40054L16.7333 1.50961Z" fill="url(#paint3_linear_596_9490)"/>
<path d="M8.8252 9.49023L8.39652 10.641C8.39652 10.641 8.2809 10.9366 8.11401 11.0053C8.2689 10.9366 8.37144 10.6628 8.37144 10.6628L8.8252 9.49023Z" fill="url(#paint4_linear_596_9490)"/>
<path d="M32.9541 9.96897C32.9541 8.47134 32.3215 7.73289 31.3092 7.73289C30.297 7.73289 29.5793 8.55533 29.5793 9.88498V14.7935C29.5793 14.8306 29.572 14.8673 29.5578 14.9016C29.5436 14.9358 29.5228 14.967 29.4965 14.9932C29.4703 15.0195 29.4391 15.0403 29.4049 15.0545C29.3706 15.0687 29.3339 15.076 29.2968 15.076H27.6802V9.75845C27.6802 8.28155 26.9843 7.73289 25.9928 7.73289C25.0646 7.73289 24.3054 8.32409 24.3054 9.88498V14.7935C24.3054 14.8306 24.2981 14.8673 24.2839 14.9016C24.2697 14.9358 24.2489 14.967 24.2226 14.9932C24.1964 15.0195 24.1653 15.0403 24.131 15.0545C24.0967 15.0687 24.06 15.076 24.0229 15.076H22.4282V6.63557C22.4282 6.53595 22.4677 6.4404 22.538 6.36986C22.6083 6.29932 22.7038 6.25954 22.8034 6.25925H24.289V7.25076C24.854 6.36178 25.6765 6.09018 26.4989 6.09018C27.5123 6.09018 28.3532 6.53304 28.9466 7.54527C29.2076 7.09602 29.5836 6.72441 30.0358 6.46867C30.488 6.21292 31.0003 6.08228 31.5198 6.09018C33.3741 6.09018 34.8739 7.18096 34.8739 9.88716V14.8011C34.8739 14.8373 34.8667 14.8731 34.8529 14.9065C34.839 14.94 34.8186 14.9703 34.793 14.9958C34.7674 15.0214 34.7369 15.0416 34.7034 15.0554C34.67 15.0691 34.6341 15.0761 34.5979 15.076H32.9541V9.96897Z" fill="white"/>
<path d="M120.168 9.97081C120.168 8.47318 119.535 7.73473 118.523 7.73473C117.511 7.73473 116.786 8.55717 116.786 9.88682V14.7593C116.786 14.8008 116.778 14.842 116.762 14.8804C116.747 14.9187 116.723 14.9536 116.694 14.983C116.664 15.0123 116.63 15.0356 116.591 15.0515C116.553 15.0674 116.512 15.0756 116.47 15.0756H114.887V9.76029C114.887 8.28339 114.192 7.73473 113.2 7.73473C112.272 7.73473 111.513 8.32593 111.513 9.88682V14.7582C111.513 14.8424 111.479 14.9231 111.42 14.9827C111.36 15.0422 111.279 15.0756 111.195 15.0756H109.635V6.66795C109.635 6.55918 109.679 6.45486 109.756 6.37795C109.832 6.30103 109.937 6.25782 110.046 6.25782H111.492V7.24933C112.061 6.36363 112.884 6.08984 113.706 6.08984C114.719 6.08984 115.56 6.5327 116.154 7.54493C116.415 7.09592 116.792 6.72466 117.245 6.46931C117.697 6.21397 118.21 6.08374 118.729 6.09202C120.583 6.09202 122.083 7.1828 122.083 9.889V14.768C122.083 14.8502 122.051 14.929 121.993 14.9871C121.934 15.0452 121.856 15.0778 121.774 15.0778H120.168V9.97081Z" fill="white"/>
<path d="M41.0584 13.5768C41.8975 13.5945 42.712 13.2927 43.337 12.7325L44.3078 14.1669C43.1679 14.9686 42.2615 15.2217 41.0584 15.2217C38.1482 15.2217 36.4182 13.4503 36.4182 10.6655C36.4182 7.92333 38.2322 6.10938 40.6362 6.10938C42.8516 6.10938 44.6023 7.60701 44.6023 10.1801C44.6023 10.5815 44.5608 11.0669 44.5608 11.0669H38.3162C38.3162 12.7325 39.54 13.5768 41.0584 13.5768ZM38.422 9.56931H42.8516C42.7251 8.30292 41.7968 7.67027 40.6788 7.67027C39.6458 7.67027 38.759 8.30292 38.422 9.56931Z" fill="white"/>
<path d="M49.5219 15.1797C47.3284 15.1797 46.5899 14.1456 46.5899 11.7623V7.83548H45.0508L45.4719 6.25277H46.5899V5.06492C46.5899 4.90038 46.6461 4.74076 46.7493 4.61259C46.8525 4.48441 46.9964 4.39538 47.1571 4.36028L48.5097 4.0625V6.25604H50.7032V7.83548H48.5097V11.8004C48.5097 13.4464 48.9111 13.6995 50.8723 13.5522L50.4927 15.1764L49.5219 15.1797Z" fill="white"/>
<path d="M82.2255 15.1797C80.0308 15.1797 79.2935 14.1456 79.2935 11.7623V7.83548H77.7533L78.1732 6.25604H79.2913V5.06492C79.291 4.90047 79.347 4.74088 79.45 4.61268C79.553 4.48448 79.6967 4.39541 79.8574 4.36028L81.21 4.0625V6.25604H83.4089V7.83548H81.2121V11.8004C81.2121 13.4464 81.6135 13.6995 83.5747 13.5522L83.1908 15.1797H82.2255Z" fill="white"/>
<path d="M54.353 11.2576V15.0753H52.455V6.61308C52.4549 6.56643 52.4639 6.52022 52.4817 6.47708C52.4994 6.43395 52.5255 6.39474 52.5585 6.3617C52.5914 6.32867 52.6305 6.30246 52.6736 6.28458C52.7167 6.26669 52.7629 6.25749 52.8095 6.25749H54.353V7.58714C54.6486 6.65889 55.5976 6.11023 56.5891 6.11023C56.758 6.10679 56.9271 6.11371 57.0952 6.13096C56.9687 6.74288 56.9272 7.22828 56.7789 7.8402H56.6316C54.6279 7.83693 54.353 9.4011 54.353 11.2576Z" fill="white"/>
<path d="M87.3749 11.2576V15.0753H85.4813V6.61308C85.4813 6.51896 85.5186 6.42868 85.5851 6.36202C85.6515 6.29537 85.7417 6.25778 85.8358 6.25749H87.3804V7.58714C87.6749 6.65889 88.6249 6.11023 89.6164 6.11023C89.7854 6.10679 89.9544 6.11371 90.1226 6.13096C89.9906 6.74615 89.9535 7.22828 89.8008 7.83693H89.6524C87.6487 7.83693 87.3749 9.4011 87.3749 11.2576Z" fill="white"/>
<path d="M59.5003 4.63299C58.8676 4.63299 58.3604 4.23268 58.3604 3.55749C58.3604 2.90303 58.8676 2.52344 59.5003 2.52344C60.1547 2.52344 60.6598 2.90303 60.6598 3.57821C60.6598 4.23704 60.1536 4.63299 59.5003 4.63299ZM58.5502 6.25715H60.47V15.075H58.5502V6.25715Z" fill="white"/>
<path d="M61.9129 10.6652C61.9129 7.7965 63.8763 6.08398 66.5541 6.08398C67.6282 6.09658 68.6758 6.41889 69.5712 7.01223L69.1698 8.70838C69.1698 8.70838 68.0518 7.78014 66.5749 7.78014C65.014 7.78014 63.7912 8.79237 63.7912 10.6489C63.7912 12.5054 64.9725 13.5809 66.5541 13.5809C67.4491 13.5651 68.312 13.2451 69.0007 12.6733L69.8657 14.2135C68.7062 14.952 67.6296 15.2258 66.5541 15.2258C63.8752 15.2214 61.9129 13.4914 61.9129 10.6652Z" fill="white"/>
<path d="M74.1275 7.73295C73.557 7.73295 72.9276 7.96529 72.9276 8.59793C72.9276 10.2428 77.3366 9.4411 77.3366 12.5247C77.3366 14.1696 76.0505 15.2037 74.025 15.2037C73.0967 15.2037 72.0212 15.0346 70.7134 14.1914C71.0504 13.7267 71.6831 12.8203 71.6831 12.8203C72.3801 13.2839 73.2658 13.5839 73.9617 13.5839C74.9107 13.5839 75.3797 13.1617 75.3797 12.5716C75.3797 10.7784 71.0766 11.7274 71.0766 8.58485C71.0766 7.02395 72.3419 6.0957 74.1308 6.0957C75.0987 6.09659 76.0423 6.39892 76.8304 6.96069L76.5108 8.59903C75.5826 7.94456 74.8027 7.73295 74.1275 7.73295Z" fill="white"/>
<path d="M95.2633 13.5768C96.1025 13.5945 96.917 13.2927 97.542 12.7325L98.5128 14.1669C97.3729 14.9686 96.4665 15.2217 95.2633 15.2217C92.3531 15.2217 90.6232 13.4503 90.6232 10.6655C90.6232 7.92333 92.4371 6.10938 94.8412 6.10938C97.0566 6.10938 98.8073 7.60701 98.8073 10.1801C98.8073 10.5815 98.7658 11.0669 98.7658 11.0669H92.5211C92.5211 12.7325 93.745 13.5768 95.2633 13.5768ZM92.6269 9.56931H97.0566C96.93 8.30292 96.0018 7.67027 94.8837 7.67027C93.8508 7.67027 92.964 8.30292 92.6269 9.56931Z" fill="white"/>
<path d="M104.134 6.13086C105.09 6.13086 106.146 6.30429 106.991 6.80605C108.068 7.44415 108.268 8.39858 108.268 9.57225V15.0752H106.39V13.7728C106.391 13.7636 106.388 13.7546 106.382 13.7473C106.377 13.7399 106.369 13.7348 106.36 13.7327C106.351 13.7306 106.342 13.7318 106.333 13.7359C106.325 13.74 106.319 13.7469 106.315 13.7554C105.939 14.5985 104.905 15.181 103.691 15.181C101.033 15.181 99.6407 13.2394 99.6407 10.687C99.6396 8.15642 101.243 6.13086 104.134 6.13086ZM103.901 13.4925C105.421 13.4925 106.39 12.1432 106.39 9.92784V9.24829C106.39 8.04844 105.17 7.79756 104.218 7.79756C102.472 7.79756 101.581 9.16866 101.581 10.7514C101.58 12.309 102.255 13.4925 103.9 13.4925H103.901Z" fill="white"/>
</g>
<defs>
<linearGradient id="paint0_linear_596_9490" x1="2.42111" y1="3.62742" x2="16.0019" y2="9.30254" gradientUnits="userSpaceOnUse">
<stop offset="0.06" stop-color="#130231"/>
<stop offset="0.08" stop-color="#12123B"/>
<stop offset="0.2" stop-color="#0B5D67"/>
<stop offset="0.31" stop-color="#07998B"/>
<stop offset="0.4" stop-color="#03C4A4"/>
<stop offset="0.47" stop-color="#01DEB4"/>
<stop offset="0.51" stop-color="#00E8BA"/>
<stop offset="0.59" stop-color="#04C6A6"/>
<stop offset="0.75" stop-color="#0E7173"/>
<stop offset="0.9" stop-color="#172445"/>
</linearGradient>
<linearGradient id="paint1_linear_596_9490" x1="2.01888" y1="7.05228" x2="10.4451" y2="10.4064" gradientUnits="userSpaceOnUse">
<stop offset="0.24" stop-color="#16DEA5"/>
<stop offset="0.39" stop-color="#0CE9C6"/>
<stop offset="0.58" stop-color="#00F6EE"/>
</linearGradient>
<linearGradient id="paint2_linear_596_9490" x1="24.7895" y1="16.3671" x2="9.50445" y2="4.27911" gradientUnits="userSpaceOnUse">
<stop offset="0.39" stop-color="#00F6EE"/>
<stop offset="0.47" stop-color="#07EFD8"/>
<stop offset="0.67" stop-color="#16DEA5"/>
<stop offset="0.7" stop-color="#16D19E"/>
<stop offset="0.77" stop-color="#15AD8B"/>
<stop offset="0.85" stop-color="#15736D"/>
<stop offset="0.96" stop-color="#132543"/>
<stop offset="1" stop-color="#130231"/>
</linearGradient>
<linearGradient id="paint3_linear_596_9490" x1="9.53747" y1="6.02214" x2="14.2507" y2="7.86445" gradientUnits="userSpaceOnUse">
<stop offset="0.21" stop-color="#16DEA5"/>
<stop offset="0.37" stop-color="#11E3B5"/>
<stop offset="0.67" stop-color="#05F0DD"/>
<stop offset="0.78" stop-color="#00F6EE"/>
</linearGradient>
<linearGradient id="paint4_linear_596_9490" x1="141.966" y1="194.043" x2="143.61" y2="194.34" gradientUnits="userSpaceOnUse">
<stop offset="0.24" stop-color="#16DEA5"/>
<stop offset="0.39" stop-color="#0CE9C6"/>
<stop offset="0.58" stop-color="#00F6EE"/>
</linearGradient>
<clipPath id="clip0_596_9490">
<rect width="122.143" height="15" fill="white" transform="translate(0 0.5)"/>
</clipPath>
</defs>
</svg>
